<svg width="70" height="73" viewBox="0 0 70 73" fill="none" xmlns="http://www.w3.org/2000/svg">
<path d="M25.0316 16.6099C25.4354 17.4398 25.1079 18.4399 24.2781 18.8437C15.6945 23.0211 10.3979 31.5425 10.3979 41.0826V47.8286C10.3979 48.7516 9.57812 49.5685 8.65531 49.5685H5.17164C2.32931 49.5685 0 47.1874 0 44.3453V36.7248C0 34.479 1.44568 32.5067 3.58801 31.8169C4.46645 31.5345 5.41432 32.0169 5.69729 32.8955C5.98027 33.7742 5.49305 34.7155 4.61443 34.9983C3.87024 35.238 3.34199 35.9479 3.34199 36.7248V44.3453C3.34199 45.3446 4.17215 46.2264 5.17146 46.2264H7.0557V41.0828C7.0557 35.7188 8.53889 30.5042 11.4124 26.0032C14.2087 21.6233 18.1161 18.1085 22.7797 15.8388C23.6097 15.4347 24.6277 15.7801 25.0316 16.6099ZM43.9916 20.2417C44.8124 19.4047 45.5878 18.6139 45.5878 16.7333C45.5878 14.1233 43.4641 11.9997 40.8538 11.9997C38.2436 11.9997 36.1202 14.1233 36.1202 16.7333C36.1202 17.6563 36.8683 18.4044 37.7913 18.4044C38.7143 18.4044 39.4624 17.6563 39.4624 16.7333C39.4624 15.9661 40.0866 15.3419 40.8542 15.3419C41.6214 15.3419 42.2457 15.9661 42.2457 16.7333C42.2457 17.2486 42.2457 17.2486 41.6054 17.9016C41.508 18.001 41.4044 18.1066 41.2942 18.2212L36.6035 23.1184C36.5901 23.1323 36.5784 23.1464 36.5784 23.1607L36.5612 23.1641L36.5523 23.1659L36.5474 23.1674C36.4178 23.3126 36.3163 23.4749 36.2461 23.6461C36.166 23.8414 36.1211 24.0551 36.1211 24.2792C36.1211 24.5141 36.169 24.7375 36.2565 24.9402C36.3421 25.1393 36.4396 25.3248 36.6057 25.4843L36.5784 25.4854L36.61 25.4306H36.6243L36.6349 25.4631L36.6388 25.4781C36.8029 25.6334 36.9918 25.7563 37.1904 25.8326C37.3547 25.8957 37.5324 25.9373 37.7168 25.9453L37.7216 25.9659C37.7447 25.9668 37.7681 25.9878 37.7911 25.9878H37.7963H43.7988C44.7218 25.9878 45.4699 25.2397 45.4699 24.3167C45.4699 23.3937 44.7218 22.6456 43.7988 22.6456H41.7141L43.7045 20.5555C43.8061 20.4495 43.9017 20.3334 43.9916 20.2417ZM70 36.7244V44.3449C70 47.1871 67.7635 49.5682 64.9212 49.5682H61.8349C60.8211 52.7247 59.2129 55.7841 57.0468 58.5155C53.4876 63.0039 48.59 66.2673 43.1434 67.911C42.8985 70.6603 40.5825 72.7775 37.7712 72.7775H32.3218C29.3478 72.7775 26.9283 70.3671 26.9283 67.3931C26.9283 64.4186 29.3478 62.0083 32.3218 62.0083H37.7712C39.7286 62.0083 41.4459 63.0923 42.3912 64.6568C52.6912 61.4698 59.7664 51.9938 59.7664 41.0824C59.7664 38.6147 59.407 36.1963 58.6964 33.8676C55.4617 36.426 51.3778 37.9552 46.9429 37.9552C36.4776 37.9552 27.9634 29.4422 27.9634 18.9771C27.9634 8.51196 36.4778 0 46.9433 0C57.4087 0 65.9225 8.51846 65.9225 18.9836C65.9225 23.6879 64.2024 28.0061 61.3579 31.3258C62.52 34.4511 63.1088 37.7534 63.1088 41.1169C63.1088 42.8396 62.9567 44.5551 62.6569 46.2262H64.9212C65.9205 46.2262 66.6578 45.3444 66.6578 44.3451V36.7246C66.6578 35.9475 66.1665 35.2377 65.4223 34.9981C64.5439 34.7154 64.0894 33.774 64.372 32.8954C64.6549 32.0169 65.5772 31.5338 66.4558 31.8168C68.5985 32.5064 70 34.4786 70 36.7244ZM39.8228 67.4204C39.8228 67.2841 39.8094 67.1868 39.784 67.058C39.7795 67.0383 39.7752 67.0006 39.7715 66.9809C39.563 66.0689 38.7455 65.3509 37.7716 65.3509H32.3222C31.191 65.3509 30.2708 66.2618 30.2708 67.3929C30.2708 68.5246 31.191 69.4357 32.3222 69.4357H37.7716C38.9025 69.4357 39.8228 68.5514 39.8228 67.4204ZM62.5804 18.975C62.5804 10.3526 55.5655 3.3379 46.9431 3.3379C38.3206 3.3379 31.3058 10.3528 31.3058 18.975C31.3058 27.5973 38.3206 34.6121 46.9431 34.6121C55.5655 34.6121 62.5804 27.5975 62.5804 18.975ZM56.0847 12.0617H56.0897H56.0821C55.1591 12.0617 54.4036 12.748 54.4036 13.671V16.7731C54.4036 17.5254 53.7674 18.1322 53.0108 18.1322C52.2438 18.1322 51.6184 17.508 51.6184 16.7408V13.6708C51.6184 12.7478 50.8703 11.9997 49.9473 11.9997C49.0243 11.9997 48.2762 12.7478 48.2762 13.6708V16.7406C48.2762 19.3506 50.4009 21.4742 53.0112 21.4742C53.495 21.4742 54.0322 21.4012 54.4036 21.2657V24.2792C54.4036 25.2022 55.1516 25.9503 56.0746 25.9503C56.9976 25.9503 57.7457 25.2022 57.7457 24.2792V16.8002C57.7457 16.7803 57.7457 16.7605 57.7457 16.7406V13.6708C57.7454 12.748 57.0075 12.0617 56.0847 12.0617Z" fill="#2E3192"/>
</svg>
