<svg width="25" height="25" viewBox="0 0 25 25" fill="none" xmlns="http://www.w3.org/2000/svg">
<path d="M3.93583 3.80713C3.74725 4.18305 3.6545 4.6468 3.469 5.5743L2.84617 8.68847C2.4518 10.6603 3.95999 12.5 5.97088 12.5C7.60799 12.5 8.97875 11.2595 9.14165 9.63049L9.21353 8.91162C9.04365 10.8373 10.5614 12.5 12.5003 12.5C14.4523 12.5 15.9776 10.8146 15.7833 8.87226L15.8594 9.63049C16.0223 11.2595 17.393 12.5 19.0302 12.5C21.041 12.5 22.5493 10.6603 22.1549 8.68847L21.5321 5.5743C21.3466 4.64683 21.2537 4.18305 21.0652 3.80713C20.6678 3.01499 19.9528 2.42884 19.0981 2.19453C18.6925 2.08334 18.2196 2.08334 17.2737 2.08334H15.1045H7.72729C6.78144 2.08334 6.3085 2.08334 5.90288 2.19453C5.04821 2.42884 4.3332 3.01499 3.93583 3.80713Z" fill="#2E3192"/>
<path d="M19.0303 14.0625C19.8815 14.0625 20.6723 13.8412 21.3548 13.4572V14.5833C21.3548 18.5117 21.3548 20.4758 20.1344 21.6962C19.152 22.6786 17.6877 22.8702 15.1048 22.9076V19.2708C15.1048 18.2973 15.1048 17.8105 14.8954 17.4479C14.7584 17.2104 14.5611 17.0131 14.3236 16.876C13.961 16.6667 13.4742 16.6667 12.5007 16.6667C11.5271 16.6667 11.0403 16.6667 10.6777 16.876C10.4402 17.0131 10.243 17.2104 10.1058 17.4479C9.89648 17.8105 9.89648 18.2973 9.89648 19.2708V22.9076C7.3136 22.8702 5.84926 22.6786 4.86687 21.6962C3.64648 20.4758 3.64648 18.5117 3.64648 14.5833V13.4572C4.32903 13.8412 5.11981 14.0625 5.97104 14.0625C7.21798 14.0625 8.36125 13.5796 9.21352 12.7832C10.0753 13.5751 11.2262 14.0625 12.5004 14.0625C13.7748 14.0625 14.9258 13.575 15.7876 12.783C16.6399 13.5795 17.7833 14.0625 19.0303 14.0625Z" fill="#2E3192"/>
</svg>
