<svg width="22" height="22" viewBox="0 0 22 22" fill="none" xmlns="http://www.w3.org/2000/svg">
<path fill-rule="evenodd" clip-rule="evenodd" d="M22 11C22 17.0751 17.0751 22 11 22C4.92487 22 0 17.0751 0 11C0 4.92487 4.92487 0 11 0C17.0751 0 22 4.92487 22 11ZM15.4333 7.66664C15.7555 7.98882 15.7555 8.51118 15.4333 8.83333L9.93333 14.3333C9.61114 14.6555 9.08886 14.6555 8.76664 14.3333L6.56664 12.1333C6.24446 11.8111 6.24446 11.2889 6.56664 10.9667C6.88882 10.6445 7.41118 10.6445 7.73336 10.9667L9.35 12.5832L11.8083 10.125L14.2667 7.66664C14.5889 7.34446 15.1111 7.34446 15.4333 7.66664Z" fill="#00CE30"/>
</svg>
