<svg width="69" height="78" viewBox="0 0 69 78" fill="none" xmlns="http://www.w3.org/2000/svg">
<path d="M43.5 6.5V2L29 1.5L29.5 7.5H33.5V12H38L39.5 7.5L43.5 6.5Z" fill="#FDB913"/>
<path d="M39.7548 11.7302V8.1951H43.0489C43.6916 8.1951 44.254 7.63269 44.254 6.98994V1.20516C44.254 0.562409 43.6916 0 43.0489 0H28.9887C28.3459 0 27.7835 0.562409 27.7835 1.20516V6.98994C27.7835 7.63269 28.3459 8.1951 28.9887 8.1951H32.2828V11.7302C24.4894 12.614 17.5798 16.2295 12.3574 21.5322L10.9916 20.1664L13.2412 17.9167C13.7233 17.4347 13.7233 16.7116 13.2412 16.2295L8.58126 11.5695C8.09919 11.0875 7.3761 11.0875 6.89403 11.5695L0.546851 17.756C0.0647866 18.2381 0.0647866 18.9612 0.546851 19.4433L5.20681 24.1032C5.44784 24.3443 5.76922 24.4246 6.09059 24.4246C6.41197 24.4246 6.73335 24.3443 6.97438 24.1032L9.30436 21.7732L10.8309 23.2998C6.01025 29.0042 3.11786 36.3959 3.11786 44.4303C3.11786 62.588 17.9012 77.3714 36.0589 77.3714C54.2167 77.3714 69 62.588 69 44.4303C68.9197 27.558 56.145 13.5782 39.7548 11.7302ZM6.09059 21.6126L3.11786 18.5595L7.61713 14.0602L10.5899 17.0329L8.82229 18.8005C8.58126 19.0415 8.25988 19.3629 7.93851 19.6843L6.09059 21.6126ZM33.4879 5.78477H30.1938V2.41032H41.8437V5.78477H38.5496C37.9068 5.78477 37.3444 6.34718 37.3444 6.98994V11.5695C36.9427 11.5695 36.4607 11.5695 36.0589 11.5695C35.6572 11.5695 35.1752 11.5695 34.7734 11.5695V6.98994C34.6931 6.26684 34.1307 5.78477 33.4879 5.78477ZM35.9786 74.961C19.1867 74.961 5.44784 61.3025 5.44784 44.4303C5.44784 27.558 19.1063 13.8995 35.9786 13.8995C36.6213 13.8995 37.2641 13.8995 37.9069 13.9799C38.2282 13.9799 38.5496 14.0602 38.871 14.0602C54.3774 15.5064 66.5093 28.6025 66.5093 44.4303C66.5093 61.3025 52.8509 74.961 35.9786 74.961Z" fill="#2E3192"/>
<path d="M53.3329 24.6653C53.2526 24.585 53.1722 24.5047 53.0919 24.4243C48.5123 20.4874 42.5668 18.1575 36.0589 18.1575C21.5167 18.1575 9.78642 29.9681 9.78642 44.43C9.78642 58.8919 21.5167 70.7828 35.9786 70.7828C50.4405 70.7828 62.2511 58.9723 62.2511 44.5103C62.3315 36.5563 58.7963 29.486 53.3329 24.6653ZM35.9786 68.3725C22.8022 68.3725 12.1164 57.6868 12.1164 44.5103C12.1164 31.3339 22.8022 20.6481 35.9786 20.6481C41.5223 20.6481 46.584 22.5764 50.6012 25.7098L37.5855 40.6538C37.1034 40.4931 36.541 40.3324 36.0589 40.3324C33.8093 40.3324 31.9614 42.1804 31.9614 44.43C31.9614 46.6796 33.8093 48.5275 36.0589 48.5275C38.3086 48.5275 40.0761 46.6796 40.0761 44.43C40.0761 43.6265 39.8351 42.8231 39.4334 42.1804L52.5295 27.156C57.1091 31.4946 59.9211 37.6007 59.9211 44.43C59.9211 57.6064 49.155 68.3725 35.9786 68.3725ZM37.6658 44.43C37.6658 45.3941 36.9427 46.1172 35.9786 46.1172C35.0145 46.1172 34.2914 45.3941 34.2914 44.43C34.2914 43.5462 35.0145 42.7428 35.9786 42.7428C36.9427 42.7428 37.6658 43.5462 37.6658 44.43Z" fill="#2E3192"/>
</svg>
