<svg width="67" height="74" viewBox="0 0 67 74" fill="none" xmlns="http://www.w3.org/2000/svg">
<path d="M55.0645 65.4516V69.7419C55.0645 70.9839 54.0484 72 52.8065 72H4.25806C3.01613 72 2 70.9839 2 69.7419V4.25806C2 3.01613 3.01613 2 4.25806 2H33.5L55.0645 22.4355V53.7097" stroke="#2E3192" stroke-width="3"/>
<path d="M55.0645 23.3387H35.871C34.629 23.3387 33.6129 22.3226 33.6129 21.0806V3.12903" stroke="#2E3192" stroke-width="3"/>
<path d="M12.1613 21.1936H26.8387" stroke="#2E3192" stroke-width="3"/>
<path d="M12.1613 32.4839H47.1613" stroke="#2E3192" stroke-width="3"/>
<path d="M12.1613 40.3871H47.1613" stroke="#2E3192" stroke-width="3"/>
<path d="M12.1613 50.5483H39.2581" stroke="#2E3192" stroke-width="3"/>
<path d="M12.1613 57.3225H31.3549" stroke="#2E3192" stroke-width="3"/>
<path d="M52.8064 49.3064L55.9677 55.2903L62.8548 56.3064L57.8871 60.9354L59.0161 67.4838L52.8064 64.4354L46.5968 67.4838L47.7258 60.9354L42.6451 56.3064L49.6451 55.2903L52.8064 49.3064Z" fill="#FDB913" stroke="#2E3192" stroke-width="3"/>
</svg>
