<svg width="69" height="75" viewBox="0 0 69 75" fill="none" xmlns="http://www.w3.org/2000/svg">
<path d="M55.5965 53.3158V70.4211C55.5965 71.6754 54.5702 72.7018 53.3158 72.7018H4.2807C3.02632 72.7018 2 71.6754 2 70.4211V4.2807C2 3.02632 3.02632 2 4.2807 2H33.8158L55.5965 22.6404V39.6316" stroke="#2E3192" stroke-width="3"/>
<path d="M55.5965 23.5527H36.2105C34.9561 23.5527 33.9298 22.5263 33.9298 21.272V3.14038" stroke="#2E3192" stroke-width="3"/>
<path d="M12.2632 21.3859H27.0877" stroke="#2E3192" stroke-width="3"/>
<path d="M12.2632 32.7895H47.6141" stroke="#2E3192" stroke-width="3"/>
<path d="M12.2632 40.772H47.6141" stroke="#2E3192" stroke-width="3"/>
<path d="M12.2632 51.035H39.6316" stroke="#2E3192" stroke-width="3"/>
<path d="M12.2632 57.8771H31.6491" stroke="#2E3192" stroke-width="3"/>
<path d="M32.7895 69.2807L37.2369 58.5614L60.386 35.4123C60.8421 34.9562 61.6404 34.9562 62.2105 35.4123L66.6579 39.8597C67.1141 40.3158 67.1141 41.1141 66.6579 41.6842L43.5088 64.8334L32.7895 69.2807Z" fill="#FDB913" stroke="#2E3192" stroke-width="3" stroke-linejoin="round"/>
<path d="M57.7632 38.1491L63.9211 44.307L57.7632 38.1491Z" fill="#FDB913"/>
<path d="M57.7632 38.1491L63.9211 44.307" stroke="#2E3192" stroke-width="3"/>
</svg>
