<svg width="24" height="18" viewBox="0 0 24 18" fill="none" xmlns="http://www.w3.org/2000/svg">
<path d="M20.668 0.183983H3.33202C1.49189 0.183983 0 1.67587 0 3.516V14.484C0 16.3241 1.49189 17.816 3.33202 17.816H20.668C22.5081 17.816 24 16.3241 24 14.484V3.516C24 1.67587 22.5081 0.183983 20.668 0.183983ZM8.35153 12.0806L3.68559 16.0612C3.35648 16.3421 2.86172 16.3031 2.58089 15.9736C2.30002 15.6445 2.33906 15.1498 2.66855 14.8689L7.33448 10.8883C7.66355 10.6074 8.15827 10.6465 8.43914 10.976C8.72002 11.305 8.68097 11.7998 8.35153 12.0806ZM12 10.5673C11.3759 10.5658 10.7709 10.3584 10.298 9.94936L10.2983 9.94973L10.2968 9.94861C10.2972 9.94898 10.2976 9.94898 10.298 9.94936L3.13884 3.73565C2.81166 3.45169 2.77683 2.95697 3.06038 2.6302C3.3443 2.30301 3.83906 2.26819 4.16578 2.55173L11.3269 8.76698C11.48 8.9032 11.7322 9.00154 12 9C12.2675 9.0008 12.5154 8.90512 12.6769 8.76431L12.6803 8.76126L19.8342 2.55178C20.1609 2.26823 20.6557 2.30306 20.9396 2.63025C21.2231 2.95697 21.1883 3.45173 20.8612 3.7357L13.7001 9.95128C13.2286 10.356 12.6245 10.5665 12 10.5673ZM21.4194 15.9736C21.1386 16.3031 20.6438 16.3421 20.3148 16.0612L15.6488 12.0806C15.3194 11.7997 15.2804 11.305 15.5612 10.976C15.8421 10.6465 16.3368 10.6075 16.6659 10.8883L21.3318 14.8689C21.6613 15.1498 21.7003 15.6445 21.4194 15.9736Z" fill="#2E3192"/>
</svg>
