<svg width="60" height="48" viewBox="0 0 60 48" fill="none" xmlns="http://www.w3.org/2000/svg">
<path d="M59.8451 6.70465C59.5746 5.34223 58.9705 4.09547 58.1269 3.06551C57.949 2.84109 57.7631 2.64012 57.5617 2.43914C56.067 0.937031 53.9691 0 51.6772 0H8.32277C6.03094 0 3.94055 0.937031 2.43879 2.43914C2.23781 2.64012 2.05195 2.84109 1.87359 3.06551C1.02949 4.09535 0.425391 5.34223 0.162422 6.70465C0.054375 7.23047 0 7.77387 0 8.32324V38.7724C0 39.9405 0.247734 41.0634 0.689531 42.0775C1.09934 43.0454 1.70355 43.9213 2.43867 44.6557C2.625 44.8416 2.81004 45.0124 3.01195 45.1823C4.45172 46.3747 6.3102 47.0948 8.32277 47.0948H51.6772C53.6905 47.0948 55.5571 46.3747 56.9885 45.1748C57.1898 45.0124 57.3758 44.8416 57.5617 44.6557C58.2964 43.9213 58.9005 43.0454 59.3188 42.0775V42.07C59.7605 41.0559 59.9999 39.9405 59.9999 38.7725V8.32324C60 7.77387 59.9464 7.23047 59.8451 6.70465ZM5.45027 5.45027C6.19383 4.70754 7.19238 4.25789 8.32277 4.25789H51.6772C52.8076 4.25789 53.815 4.70754 54.5497 5.45027C54.6812 5.58258 54.8051 5.73 54.9144 5.87648L32.1909 25.6806C31.5642 26.2298 30.7901 26.5011 30 26.5011C29.2179 26.5011 28.4442 26.2298 27.8092 25.6806L5.09438 5.86805C5.19492 5.72156 5.31879 5.58258 5.45027 5.45027ZM4.25789 38.7724V10.2742L20.7021 24.6197L4.26621 38.95C4.25789 38.8956 4.25789 38.8344 4.25789 38.7724ZM51.6772 42.8361H8.32277C7.58672 42.8361 6.89801 42.6427 6.3102 42.3027L23.6514 27.1903L25.2703 28.5987C26.6251 29.7759 28.3205 30.3722 30 30.3722C31.6882 30.3722 33.3834 29.7759 34.7381 28.5987L36.3562 27.1903L53.6906 42.3027C53.102 42.6427 52.4133 42.8361 51.6772 42.8361ZM55.7421 38.7724C55.7421 38.8344 55.7421 38.8956 55.7341 38.95L39.2984 24.628L55.7421 10.2818V38.7724Z" fill="#005DB9"/>
</svg>
