<svg width="101" height="16" viewBox="0 0 101 16" fill="none" xmlns="http://www.w3.org/2000/svg">
<path d="M16.7503 6.03928C16.7119 5.91754 16.6399 5.80909 16.5427 5.72642C16.4454 5.64374 16.3268 5.5902 16.2005 5.57195L11.2339 4.84804L9.00715 0.348779C8.94374 0.242465 8.85384 0.154423 8.74626 0.0932841C8.63859 0.0321456 8.51699 0 8.3932 0C8.2694 0 8.1478 0.0321456 8.04013 0.0932841C7.93255 0.154423 7.84256 0.242465 7.77924 0.348779L5.55252 4.84804L0.585924 5.57195C0.459579 5.5902 0.340958 5.64374 0.243697 5.72642C0.146436 5.80909 0.0744847 5.91754 0.0361173 6.03928C-0.00484331 6.16056 -0.011102 6.29096 0.0180469 6.41558C0.0471867 6.5403 0.11057 6.65429 0.201059 6.74492L3.81146 10.2454L2.95926 15.1936C2.93766 15.321 2.95193 15.4518 3.00048 15.5716C3.04903 15.6914 3.12994 15.7953 3.23416 15.8717C3.33855 15.946 3.46165 15.9897 3.58958 15.9979C3.71751 16.006 3.84514 15.9781 3.95807 15.9175L8.3932 13.5809L12.8375 15.9175C12.9358 15.9714 13.046 15.9998 13.1582 16C13.3023 15.9983 13.4427 15.9536 13.5614 15.8717C13.6656 15.7953 13.7465 15.6914 13.795 15.5716C13.8436 15.4518 13.8579 15.321 13.8363 15.1936L12.9749 10.2454L16.5762 6.74492C16.6682 6.6553 16.7333 6.54167 16.7641 6.41696C16.7949 6.29224 16.79 6.16139 16.7503 6.03928Z" fill="#FFC800"/>
<path d="M37.7302 6.03928C37.6918 5.91754 37.6199 5.80909 37.5227 5.72642C37.4254 5.64374 37.3068 5.5902 37.1804 5.57195L32.2138 4.84804L29.9871 0.348779C29.9237 0.242465 29.8338 0.154423 29.7262 0.0932841C29.6186 0.0321456 29.497 0 29.3732 0C29.2494 0 29.1278 0.0321456 29.0201 0.0932841C28.9125 0.154423 28.8225 0.242465 28.7592 0.348779L26.5325 4.84804L21.5659 5.57195C21.4396 5.5902 21.3209 5.64374 21.2237 5.72642C21.1264 5.80909 21.0545 5.91754 21.0161 6.03928C20.9751 6.16056 20.9689 6.29096 20.998 6.41558C21.0272 6.5403 21.0906 6.65429 21.181 6.74492L24.7914 10.2454L23.9392 15.1936C23.9176 15.321 23.9319 15.4518 23.9805 15.5716C24.029 15.6914 24.1099 15.7953 24.2141 15.8717C24.3185 15.946 24.4416 15.9897 24.5696 15.9979C24.6975 16.006 24.8251 15.9781 24.9381 15.9175L29.3732 13.5809L33.8174 15.9175C33.9158 15.9714 34.026 15.9998 34.1382 16C34.2823 15.9983 34.4227 15.9536 34.5414 15.8717C34.6455 15.7953 34.7265 15.6914 34.775 15.5716C34.8236 15.4518 34.8379 15.321 34.8163 15.1936L33.9549 10.2454L37.5561 6.74492C37.6482 6.6553 37.7133 6.54167 37.7441 6.41696C37.7749 6.29224 37.77 6.16139 37.7302 6.03928Z" fill="#FFC800"/>
<path d="M58.7107 6.03928C58.6723 5.91754 58.6004 5.80909 58.5032 5.72642C58.4058 5.64374 58.2873 5.5902 58.1609 5.57195L53.1943 4.84804L50.9676 0.348779C50.9042 0.242465 50.8143 0.154423 50.7067 0.0932841C50.599 0.0321456 50.4774 0 50.3536 0C50.2298 0 50.1082 0.0321456 50.0006 0.0932841C49.893 0.154423 49.803 0.242465 49.7397 0.348779L47.513 4.84804L42.5464 5.57195C42.42 5.5902 42.3014 5.64374 42.2041 5.72642C42.1069 5.80909 42.0349 5.91754 41.9966 6.03928C41.9556 6.16056 41.9493 6.29096 41.9785 6.41558C42.0076 6.5403 42.071 6.65429 42.1615 6.74492L45.7719 10.2454L44.9197 15.1936C44.8981 15.321 44.9124 15.4518 44.9609 15.5716C45.0095 15.6914 45.0904 15.7953 45.1946 15.8717C45.299 15.946 45.4221 15.9897 45.55 15.9979C45.678 16.006 45.8056 15.9781 45.9185 15.9175L50.3536 13.5809L54.7979 15.9175C54.8962 15.9714 55.0065 15.9998 55.1186 16C55.2628 15.9983 55.4032 15.9536 55.5218 15.8717C55.626 15.7953 55.7069 15.6914 55.7555 15.5716C55.8041 15.4518 55.8184 15.321 55.7967 15.1936L54.9354 10.2454L58.5366 6.74492C58.6287 6.6553 58.6938 6.54167 58.7245 6.41696C58.7553 6.29224 58.7505 6.16139 58.7107 6.03928Z" fill="#FFC800"/>
<path d="M79.6907 6.03928C79.6523 5.91754 79.5804 5.80909 79.4831 5.72642C79.3858 5.64374 79.2672 5.5902 79.1409 5.57195L74.1743 4.84804L71.9476 0.348779C71.8842 0.242465 71.7943 0.154423 71.6867 0.0932841C71.579 0.0321456 71.4574 0 71.3336 0C71.2098 0 71.0882 0.0321456 70.9806 0.0932841C70.873 0.154423 70.783 0.242465 70.7197 0.348779L68.4929 4.84804L63.5264 5.57195C63.4 5.5902 63.2814 5.64374 63.1841 5.72642C63.0869 5.80909 63.0149 5.91754 62.9765 6.03928C62.9356 6.16056 62.9293 6.29096 62.9585 6.41558C62.9876 6.5403 63.051 6.65429 63.1415 6.74492L66.7519 10.2454L65.8997 15.1936C65.8781 15.321 65.8924 15.4518 65.9409 15.5716C65.9895 15.6914 66.0704 15.7953 66.1746 15.8717C66.279 15.946 66.4021 15.9897 66.53 15.9979C66.6579 16.006 66.7856 15.9781 66.8985 15.9175L71.3336 13.5809L75.7779 15.9175C75.8762 15.9714 75.9865 15.9998 76.0986 16C76.2428 15.9983 76.3831 15.9536 76.5018 15.8717C76.606 15.7953 76.6869 15.6914 76.7355 15.5716C76.784 15.4518 76.7983 15.321 76.7767 15.1936L75.9153 10.2454L79.5166 6.74492C79.6087 6.6553 79.6737 6.54167 79.7045 6.41696C79.7353 6.29224 79.7305 6.16139 79.6907 6.03928Z" fill="#FFC800"/>
<path d="M100.671 6.03928C100.632 5.91754 100.56 5.80909 100.463 5.72642C100.366 5.64374 100.247 5.5902 100.121 5.57195L95.1543 4.84804L92.9276 0.348779C92.8641 0.242465 92.7743 0.154423 92.6667 0.0932841C92.559 0.0321456 92.4374 0 92.3136 0C92.1898 0 92.0682 0.0321456 91.9605 0.0932841C91.853 0.154423 91.763 0.242465 91.6997 0.348779L89.4729 4.84804L84.5063 5.57195C84.38 5.5902 84.2614 5.64374 84.1641 5.72642C84.0668 5.80909 83.9949 5.91754 83.9565 6.03928C83.9156 6.16056 83.9093 6.29096 83.9385 6.41558C83.9676 6.5403 84.031 6.65429 84.1215 6.74492L87.7319 10.2454L86.8797 15.1936C86.8581 15.321 86.8723 15.4518 86.9209 15.5716C86.9694 15.6914 87.0503 15.7953 87.1546 15.8717C87.259 15.946 87.3821 15.9897 87.51 15.9979C87.6379 16.006 87.7656 15.9781 87.8785 15.9175L92.3136 13.5809L96.7579 15.9175C96.8562 15.9714 96.9664 15.9998 97.0786 16C97.2227 15.9983 97.3631 15.9536 97.4818 15.8717C97.586 15.7953 97.6669 15.6914 97.7155 15.5716C97.764 15.4518 97.7783 15.321 97.7567 15.1936L96.8953 10.2454L100.497 6.74492C100.589 6.6553 100.654 6.54167 100.685 6.41696C100.715 6.29224 100.71 6.16139 100.671 6.03928Z" fill="#FFC800"/>
</svg>
