<svg width="25" height="25" viewBox="0 0 25 25" fill="none" xmlns="http://www.w3.org/2000/svg">
<path d="M3.93535 3.80704C3.74676 4.18297 3.65401 4.64672 3.46851 5.57422L2.84568 8.68839C2.45131 10.6602 3.9595 12.4999 5.97039 12.4999C7.6075 12.4999 8.97826 11.2594 9.14116 9.63041L9.21304 8.91153C9.04316 10.8372 10.561 12.4999 12.4998 12.4999C14.4518 12.4999 15.9771 10.8145 15.7828 8.87218L15.8589 9.63041C16.0218 11.2594 17.3925 12.4999 19.0297 12.4999C21.0405 12.4999 22.5488 10.6602 22.1544 8.68839L21.5316 5.57422C21.3461 4.64674 21.2533 4.18297 21.0647 3.80704C20.6673 3.01491 19.9523 2.42875 19.0976 2.19445C18.692 2.08325 18.2191 2.08325 17.2733 2.08325H15.104H7.7268C6.78095 2.08325 6.30801 2.08325 5.9024 2.19445C5.04772 2.42875 4.33271 3.01491 3.93535 3.80704Z" fill="#FDB913"/>
<path d="M19.0296 14.0624C19.8808 14.0624 20.6716 13.8412 21.3541 13.4571V14.5833C21.3541 18.5116 21.3541 20.4758 20.1337 21.6962C19.1513 22.6786 17.687 22.8701 15.1041 22.9075V19.2708C15.1041 18.2972 15.1041 17.8105 14.8947 17.4479C14.7576 17.2104 14.5603 17.0131 14.3228 16.876C13.9602 16.6666 13.4735 16.6666 12.4999 16.6666C11.5264 16.6666 11.0396 16.6666 10.677 16.876C10.4395 17.0131 10.2422 17.2104 10.1051 17.4479C9.89575 17.8105 9.89575 18.2972 9.89575 19.2708V22.9075C7.31287 22.8701 5.84852 22.6786 4.86614 21.6962C3.64575 20.4758 3.64575 18.5116 3.64575 14.5833V13.4571C4.32829 13.8412 5.11907 14.0624 5.9703 14.0624C7.21725 14.0624 8.36051 13.5795 9.21278 12.7832C10.0746 13.575 11.2254 14.0624 12.4997 14.0624C13.7741 14.0624 14.925 13.5749 15.7869 12.783C16.6392 13.5794 17.7825 14.0624 19.0296 14.0624Z" fill="#FDB913"/>
</svg>
