<svg width="102" height="56" viewBox="0 0 102 56" fill="none" xmlns="http://www.w3.org/2000/svg">
<path d="M42.1468 11.2972C41.6833 11.4978 41.2245 11.6839 40.7701 11.8516L40.7489 11.8541C39.6653 11.9897 38.1331 12.3513 37.0233 12.5998C35.5351 12.9313 34.1869 13.6541 33.0799 13.9141C32.2584 14.0761 31.4235 14.1602 30.5862 14.1654C29.2358 14.1626 26.0417 13.6481 24.4867 13.3616L24.2419 13.3166C23.6039 17.8785 20.72 31.5703 19.1619 36.5183C19.7449 36.5642 20.6197 36.641 21.832 36.7791C22.5881 36.8812 23.3321 37.0589 24.0527 37.3094C24.1406 37.3387 24.2273 37.3702 24.3129 37.4039C24.3129 37.4039 32.1255 41.0195 34.5808 42.6936C37.2816 44.5348 49.0051 51.7163 49.0051 51.7163C50.4573 52.498 51.9607 53.1809 53.5048 53.7602C54.7285 54.1726 56.0452 54.2228 57.2966 53.9047C58.4498 53.5531 59.0174 52.7059 59.0716 51.8392L59.044 51.3945C60.0985 51.8406 62.4822 52.2563 64.1262 50.8774C64.872 50.2524 65.3139 48.8315 64.9855 47.9314L64.9162 47.6422C66.434 48.4863 69.1331 48.526 70.7144 46.6218C71.6058 45.549 71.3748 43.4501 70.0261 42.2193L70.1824 42.3251C72.4617 43.0665 74.5609 42.0182 75.2564 40.8521C75.9193 39.7417 76.2083 37.9052 74.8485 36.4578C76.1364 35.6226 77.744 34.7986 79.0974 33.9656C80.1809 33.2797 81.3052 32.6604 82.4639 32.1111C80.8671 26.4902 78.3729 14.7234 77.7294 10.3391C76.7604 10.5678 75.6749 10.786 74.4212 10.9848C72.7308 11.2914 57.8237 8.23378 53.5286 7.7725C49.4188 7.51231 45.6519 9.78083 42.1468 11.2972Z" fill="white"/>
<path d="M29.627 42.5213C30.2158 41.1593 31.0245 39.9033 32.0209 38.8037C32.5346 38.1659 33.1612 37.6279 33.8693 37.2164C34.4863 36.9117 35.1763 36.7857 35.8612 36.8527C36.5461 36.9198 37.1985 37.1771 37.7448 37.5956C38.822 38.4455 39.241 40.0555 38.9123 41.3797C38.5836 42.7038 36.0712 46.4636 34.5507 47.4066C34.1124 47.6579 33.624 47.8092 33.1203 47.8498C32.6167 47.8904 32.1104 47.8192 31.6375 47.6414C30.5683 47.1925 30.0247 46.5918 29.543 45.5361C29.1734 44.7268 29.2267 43.4562 29.627 42.5213Z" fill="white"/>
<path d="M36.7159 46.2209C37.1757 44.8592 37.8563 43.5823 38.7303 42.4413C39.1753 41.7846 39.7371 41.2152 40.3876 40.7614C40.959 40.4181 41.6151 40.2415 42.2816 40.2516C42.9481 40.2617 43.5985 40.4581 44.1592 40.8185C45.266 41.553 45.7999 43.0738 45.5881 44.3775C45.3762 45.6812 43.2511 49.5123 41.8592 50.5436C41.4562 50.8212 40.9967 51.0063 40.5138 51.0857C40.0309 51.165 39.5364 51.1367 39.0656 51.0027C37.9975 50.6547 37.4249 50.1172 36.8756 49.1375C36.4538 48.3856 36.4046 47.1559 36.7159 46.2209Z" fill="white"/>
<path d="M42.8268 51.0815C43.0406 49.8966 43.9209 47.8327 44.8686 46.9961C45.2945 46.6415 45.8126 46.4154 46.3623 46.3444C46.912 46.2734 47.4705 46.3603 47.9726 46.595C48.9686 47.0671 49.4642 48.4617 49.4456 49.5574C49.4271 50.6531 48.5844 53.0084 47.5633 54.0207C47.2652 54.2965 46.9099 54.503 46.5228 54.6255C46.1356 54.748 45.7262 54.7835 45.3238 54.7295C44.9166 54.6712 44.5263 54.5278 44.1783 54.3087C43.8302 54.0895 43.5323 53.7995 43.3038 53.4575C42.8481 52.7551 42.6775 51.9054 42.8268 51.0815Z" fill="white"/>
<path d="M22.852 41.1602C22.5117 40.2785 22.7921 38.7384 23.3539 38.044C24.2601 36.9231 26.261 37.1946 27.3407 37.8727C28.1365 38.3724 29.1913 39.4935 29.4269 40.0432C30.1407 41.5375 29.4341 42.8484 28.9057 43.2574C28.2856 43.7378 26.7665 43.896 25.992 43.7731C25.2912 43.6365 24.6362 43.3254 24.0874 42.8687C23.5386 42.4121 23.1137 41.8244 22.852 41.1602Z" fill="white"/>
<path d="M0.720635 4.34497C7.07735 6.07847 17.6546 8.84058 20.3592 9.66231C17.7512 19.8109 15.6805 34.0929 13.4758 39.8629C11.2515 39.3489 4.45501 37.6033 0.4505 36.6036" fill="#FDB913"/>
<path d="M101.279 1.198C94.9229 2.93177 84.3454 5.69361 81.6407 6.51533C84.2487 16.6639 86.3195 30.9465 88.5256 36.7168C90.7502 36.2028 97.5464 34.4574 101.551 33.4575" fill="#005DB9"/>
<path d="M79.375 8.47204C80.2296 8.2008 81.1958 7.91161 81.8523 7.7224L81.9379 7.69727C84.0424 16.2598 85.8049 27.2743 87.5906 33.7768C87.5116 33.7995 87.4702 33.8119 87.4702 33.8119C86.3551 34.1489 84.6324 34.408 83.3403 34.7477C81.894 31.6058 77.7995 12.3509 77.5815 9.10732C78.1669 8.86189 78.7657 8.64979 79.375 8.47204Z" fill="white"/>
<path d="M14.4682 36.7076C16.236 30.1821 17.9794 19.3212 20.0596 10.8542C20.1148 10.8645 20.1477 10.8689 20.1477 10.8689C21.4486 11.2434 23.8867 12.0171 24.3599 12.2754C24.1422 15.5189 20.1062 34.752 18.6597 37.8942C17.3676 37.5545 15.6449 37.2954 14.5298 36.9584L14.4097 36.9228C14.4294 36.8517 14.4489 36.78 14.4682 36.7076Z" fill="white"/>
<path d="M51.8255 19.0473C50.7632 18.8338 49.5735 19.075 48.5297 19.2763C47.8858 19.3982 47.2498 19.5594 46.6255 19.7589C46.0226 19.9544 45.2721 20.1732 44.8072 20.6245C44.561 20.9001 44.3624 21.2149 44.2197 21.5559C44.0427 21.9036 43.8692 22.2528 43.6949 22.6016C43.382 23.2278 43.0671 23.854 42.7194 24.4616C42.0681 25.664 41.1837 26.7244 40.1177 27.5809C39.6386 27.9841 39.051 28.2368 38.4287 28.3073C37.8502 28.4174 37.2532 28.3789 36.6935 28.1954C36.1411 27.9681 35.5569 27.4511 35.4829 26.8243C35.4688 26.4506 35.4836 26.0763 35.5274 25.7049C35.5458 25.2515 35.5606 24.798 35.5719 24.3442C35.6069 22.9168 35.605 21.4871 35.7193 20.063C35.7797 19.3124 35.8735 18.5666 36.0005 17.8257C36.1359 17.034 36.2687 16.1894 36.643 15.4696C37.3335 14.1421 38.7463 13.2198 40.1368 12.7674C41.5609 12.2775 42.9537 11.7011 44.3076 11.0414C47.1166 9.7313 50.0671 8.30937 53.2447 8.42151C53.4507 8.42869 53.6529 8.44913 53.8573 8.47316C53.932 8.48237 54.0067 8.49158 54.0813 8.50078L54.1984 8.51597C54.2487 8.5226 54.2302 8.52012 54.1432 8.50824L54.2418 8.52177C54.6255 8.57499 55.0087 8.63125 55.3914 8.69054C56.3581 8.83969 57.3204 9.00155 58.283 9.16645C60.5432 9.55315 62.7999 9.96 65.0587 10.3542C67.1281 10.7157 69.1986 11.0787 71.2785 11.3739C72.0066 11.4775 72.7366 11.5794 73.4696 11.638C74.1532 11.6724 74.8383 11.6159 75.507 11.4701C76.3111 11.3277 77.1109 11.1641 77.9064 10.9792C78.737 10.7859 78.3854 9.50757 77.554 9.70064C76.7167 9.8951 75.8748 10.0662 75.0283 10.2138C74.7897 10.2556 74.5502 10.292 74.3118 10.3337C74.066 10.3765 74.4433 10.3406 74.3162 10.3337C74.2334 10.3293 74.1442 10.3423 74.0594 10.3417C73.4666 10.3251 72.8755 10.2725 72.2891 10.1843L72.0223 10.1498C71.8444 10.1263 72.1173 10.1627 72.0049 10.1473L71.8635 10.1279C71.6344 10.0961 71.4057 10.0632 71.1774 10.0293C70.7041 9.95936 70.2314 9.88644 69.7593 9.81058C68.6561 9.63408 67.5546 9.44681 66.4536 9.2565C62.2646 8.53255 58.08 7.65889 53.8584 7.14597C50.7648 6.77032 47.6936 8.03205 44.9431 9.29019C43.5328 9.93515 42.1429 10.6367 40.6895 11.1781C39.9478 11.4159 39.22 11.6947 38.5094 12.0134C37.7842 12.3785 37.1211 12.8556 36.5444 13.427C35.9252 14.0342 35.4528 14.7747 35.1633 15.5922C34.9049 16.4102 34.7242 17.2508 34.6239 18.1027C34.4155 19.5962 34.3019 21.1015 34.2836 22.6094C34.2681 23.359 34.2574 24.1086 34.2347 24.858C34.2211 25.3119 34.2027 25.7654 34.1795 26.2186C34.0957 26.835 34.2117 27.462 34.5107 28.0075C34.8096 28.553 35.2757 28.9882 35.8403 29.2492C36.4884 29.5759 37.2127 29.7215 37.9368 29.6707C38.6689 29.6669 39.3922 29.5107 40.0606 29.2119C40.7285 28.8404 41.3356 28.3686 41.8603 27.8129C42.8436 26.793 43.6629 25.6268 44.2888 24.3558C44.6421 23.6835 44.9732 22.9996 45.3168 22.3221C45.4472 22.0649 45.5618 21.6926 45.8038 21.5236C46.0409 21.377 46.296 21.262 46.5628 21.1814C47.7691 20.7423 49.0271 20.461 50.3055 20.3444C50.5519 20.3218 50.7996 20.3052 51.0471 20.3041C51.143 20.3041 51.2391 20.3041 51.3349 20.3107C51.3847 20.3138 51.4341 20.3182 51.4835 20.3232C51.296 20.3044 51.4324 20.3174 51.4747 20.3259C51.644 20.3682 51.8232 20.3437 51.975 20.2575C52.1268 20.1714 52.2396 20.0301 52.2901 19.863C52.3351 19.6935 52.3118 19.5131 52.2253 19.3606C52.1387 19.2081 51.9958 19.0956 51.8271 19.0473H51.8255Z" fill="#2E3192"/>
<path d="M51.4722 20.325C51.5302 20.3463 51.7097 20.4338 51.4877 20.327C51.5401 20.3524 51.5948 20.3745 51.6476 20.3993C51.7788 20.4615 51.9072 20.5294 52.0343 20.5999C52.3417 20.7708 52.64 20.9589 52.935 21.1492C53.854 21.7456 54.7464 22.3831 55.6419 23.0153C58.6526 25.1446 61.6895 27.2413 64.6842 29.3933C66.3669 30.6029 68.0314 31.8374 69.6778 33.0967C70.4934 33.7228 71.3018 34.3587 72.1032 35.0045C72.5083 35.331 72.9117 35.6601 73.3133 35.9917C73.7349 36.3079 74.1284 36.6598 74.4897 37.0435C74.8865 37.5405 75.1153 38.1506 75.1433 38.7859C75.1713 39.4212 74.997 40.0491 74.6455 40.579C74.2669 41.0878 73.7399 41.4668 73.1371 41.6637C72.7557 41.8011 72.3563 41.882 71.9516 41.904C71.4538 41.9556 70.9509 41.8938 70.4805 41.7231C70.2176 41.572 69.966 41.4019 69.7278 41.2143C69.3938 40.9856 69.0603 40.7564 68.7274 40.5268C67.9739 40.0074 67.2214 39.4861 66.4699 38.9629C65.1354 38.0348 63.8042 37.1026 62.4762 36.1663C62.324 36.079 62.1437 36.0551 61.9741 36.0996C61.8045 36.1441 61.6591 36.2534 61.5694 36.4041C61.4842 36.5567 61.4615 36.7364 61.5058 36.9055C61.5501 37.0745 61.6581 37.2199 61.8072 37.3112C64.3378 39.101 66.8828 40.871 69.4422 42.621C69.7912 42.8704 70.1902 43.0408 70.6117 43.1204C71.1254 43.2256 71.6515 43.2572 72.1742 43.2143C73.0996 43.1445 73.9897 42.8299 74.7535 42.3028C75.3701 41.8463 75.8516 41.2314 76.1469 40.5233C76.4422 39.8151 76.5402 39.0403 76.4306 38.2809C76.3036 37.381 75.8866 36.5471 75.2429 35.9055C74.4481 35.1636 73.6113 34.4679 72.7369 33.8218C70.9949 32.4278 69.2234 31.0713 67.4226 29.7521C64.1304 27.3275 60.7556 25.0181 57.4198 22.6535C56.3479 21.8936 55.2798 21.1269 54.1909 20.391C53.5891 19.958 52.9541 19.5732 52.2917 19.2401C52.1395 19.1691 51.9846 19.102 51.8269 19.0448C51.6574 18.9996 51.477 19.0228 51.3244 19.1094C51.1719 19.196 51.0595 19.339 51.0115 19.5077C50.9685 19.6771 50.9926 19.8566 51.0789 20.0086C51.1652 20.1606 51.3069 20.2734 51.4744 20.3234L51.4722 20.325Z" fill="#2E3192"/>
<path d="M48.6706 52.2874C50.0117 53.0277 51.4031 53.6731 52.8345 54.2187C54.4776 54.854 56.6683 55.1302 58.2617 54.2038C58.6826 53.9606 59.0372 53.6176 59.294 53.2049C59.5509 52.7923 59.7022 52.3227 59.7345 51.8377C59.7331 51.6624 59.6628 51.4945 59.5388 51.3705C59.4148 51.2465 59.247 51.1762 59.0716 51.1748C58.8968 51.1782 58.7302 51.2492 58.6066 51.3728C58.483 51.4963 58.4121 51.663 58.4087 51.8377C58.3463 52.607 57.6773 53.1299 56.9136 53.3213C55.8738 53.5477 54.7923 53.4893 53.783 53.1522C53.0154 52.8933 52.2651 52.5859 51.5366 52.2319C50.7944 51.8913 50.053 51.5414 49.3398 51.1425C48.5941 50.726 47.9248 51.8706 48.6706 52.2874Z" fill="#2E3192"/>
<path d="M24.3105 14.0005C26.256 14.4001 28.2255 14.6727 30.2065 14.8164C31.2303 14.8687 32.2564 14.78 33.2561 14.5529C34.483 14.2662 35.6125 13.6541 36.8305 13.329C38.1176 12.9734 39.4265 12.7021 40.7489 12.517C40.923 12.5116 41.0885 12.44 41.2116 12.3168C41.3348 12.1937 41.4064 12.0282 41.4118 11.8541C41.4108 11.6786 41.3406 11.5105 41.2165 11.3864C41.0924 11.2623 40.9244 11.1922 40.7489 11.1912C39.5496 11.3464 38.371 11.6171 37.1921 11.8817C35.9389 12.164 34.7871 12.665 33.576 13.0757C31.753 13.6942 29.8057 13.5108 27.9366 13.25C26.8417 13.0972 25.7504 12.9209 24.6629 12.7211C24.4936 12.6791 24.3147 12.7038 24.163 12.7898C24.0113 12.8759 23.8984 13.0169 23.8475 13.1837C23.8023 13.3532 23.8255 13.5337 23.9121 13.6863C23.9987 13.8388 24.1418 13.9513 24.3105 13.9994V14.0005Z" fill="#2E3192"/>
<path d="M75.6106 36.7582C76.7792 36.04 77.994 35.4023 79.169 34.6954C80.3415 33.9587 81.5529 33.2856 82.7978 32.6791C82.9486 32.5894 83.058 32.444 83.1025 32.2743C83.147 32.1046 83.123 31.9242 83.0357 31.772C82.9442 31.6232 82.7988 31.5155 82.6298 31.4712C82.4609 31.4269 82.2813 31.4494 82.1286 31.5342C80.8838 32.1408 79.6725 32.8139 78.5 33.5505C77.325 34.2574 76.1102 34.8957 74.9413 35.6133C74.2154 36.0588 74.8805 37.2062 75.6106 36.7582Z" fill="#2E3192"/>
<path d="M56.9569 43.3458C59.2558 44.8826 61.5973 46.3601 63.9451 47.8229C64.4882 48.1915 65.0843 48.4754 65.7128 48.6648C66.4011 48.8471 67.1175 48.8994 67.825 48.8189C69.3613 48.6396 71.0462 47.7928 71.661 46.2902C72.3281 44.6605 71.616 42.6384 70.2819 41.567C70.1551 41.4474 69.9874 41.3809 69.8132 41.3809C69.6389 41.3809 69.4712 41.4474 69.3444 41.567C69.2212 41.6918 69.1521 41.8602 69.1521 42.0357C69.1521 42.2111 69.2212 42.3795 69.3444 42.5044C70.3001 43.2712 70.8401 44.5801 70.4642 45.7223C70.2985 46.2211 69.8063 46.6733 69.279 46.9854C68.7554 47.2927 68.1679 47.4748 67.5623 47.5174C66.9532 47.5671 66.3404 47.4911 65.762 47.2939C65.2861 47.0958 64.8332 46.8465 64.4113 46.5504C63.223 45.8073 62.0395 45.0569 60.8606 44.299C59.7784 43.6057 58.6946 42.9143 57.6262 42.1998C56.9149 41.7241 56.2504 42.8721 56.9569 43.3444V43.3458Z" fill="#2E3192"/>
<path d="M52.6604 48.1339C54.5572 49.3846 56.4445 50.6839 58.4123 51.8207C59.2176 52.2389 60.1095 52.4633 61.0169 52.4759C62.2158 52.5567 63.4052 52.2162 64.3798 51.5133C65.4501 50.6974 66.06 49.0597 65.6227 47.7535C65.3537 46.9481 64.0726 47.2934 64.3442 48.106C64.4576 48.5297 64.4466 48.9771 64.3124 49.3947C64.1783 49.8123 63.9266 50.1824 63.5876 50.4607C62.7853 51.0136 61.809 51.2551 60.8415 51.1399C60.4433 51.1081 60.0497 51.0327 59.6679 50.915C59.5947 50.8927 59.5218 50.8692 59.4497 50.8435C59.4166 50.8319 59.2011 50.7449 59.3365 50.8037C59.2199 50.7519 59.1071 50.6922 58.9987 50.625C58.1026 50.0785 57.2139 49.52 56.3324 48.9495C55.327 48.3021 54.3256 47.6484 53.3283 46.9884C52.614 46.5175 51.9492 47.6652 52.6593 48.1333L52.6604 48.1339Z" fill="#2E3192"/>
<path d="M19.1619 37.1798C20.8468 37.3135 22.5427 37.432 24.1367 38.0419C24.3062 38.0872 24.4868 38.064 24.6394 37.9774C24.792 37.8907 24.9044 37.7475 24.9524 37.5787C24.9951 37.4093 24.9708 37.2299 24.8845 37.0779C24.7982 36.926 24.6566 36.8133 24.4892 36.7633C22.791 36.1136 20.9581 35.9963 19.1619 35.854C18.9865 35.8554 18.8187 35.9258 18.6947 36.0498C18.5707 36.1738 18.5004 36.3415 18.499 36.5169C18.5024 36.6917 18.5733 36.8583 18.6969 36.9819C18.8205 37.1055 18.9871 37.1764 19.1619 37.1798Z" fill="#2E3192"/>
<path d="M10.9305 6.40215C7.64939 5.5238 4.36689 4.65042 1.08938 3.75826C0.99104 3.73261 0.88816 3.72967 0.788519 3.74965C0.688878 3.76963 0.595087 3.81202 0.514243 3.87359C0.433399 3.93517 0.36762 4.01433 0.321883 4.10508C0.276146 4.19583 0.251649 4.2958 0.250247 4.39741C0.254114 12.7442 0.146668 21.091 0.0649096 29.4376C0.0417079 31.8113 0.0200713 34.1852 0 36.5591C0.00164476 36.7038 0.049875 36.8441 0.13754 36.9593C0.225205 37.0744 0.347637 37.1582 0.486684 37.1983C4.09427 38.0993 7.68143 39.0787 11.2832 40.0018C11.9539 40.1739 12.625 40.3457 13.2996 40.502C13.4689 40.5435 13.6476 40.5186 13.7992 40.4326C13.9508 40.3465 14.0638 40.2057 14.1149 40.0391C15.3245 36.8586 15.9816 33.4484 16.6787 30.1287C17.596 25.7579 18.4233 21.3689 19.3486 16.9998C19.856 14.6034 20.3896 12.2117 20.9984 9.83849C21.0417 9.66902 21.0176 9.48938 20.9312 9.33729C20.8448 9.18519 20.7029 9.07249 20.5352 9.02284C17.361 8.06135 14.134 7.25951 10.9305 6.40215C10.1055 6.18118 9.75356 7.45976 10.578 7.68073C13.7821 8.53699 17.0085 9.33993 20.1827 10.3014L19.7198 9.48605C18.615 13.7949 17.741 18.1627 16.8682 22.5232C16.0495 26.6169 15.2711 30.7231 14.2801 34.779C13.9005 36.4429 13.4188 38.0819 12.8377 39.6867L13.6531 39.2235C10.3438 38.4562 7.06962 37.525 3.78188 36.6716C2.80244 36.4174 1.82189 36.1668 0.840234 35.9197L1.32581 36.5591C1.39542 28.0096 1.50645 19.4617 1.55617 10.911C1.56888 8.74 1.57551 6.5688 1.57606 4.39741L0.736931 5.03546C4.01445 5.929 7.29694 6.80321 10.5789 7.68073C11.4034 7.90142 11.7553 6.62284 10.9305 6.40215Z" fill="#2E3192"/>
<path d="M19.9714 11.5085C20.7664 11.7383 21.557 11.9824 22.3432 12.2407C22.7103 12.3609 23.0769 12.4832 23.4401 12.6142C23.5843 12.6661 23.7271 12.7202 23.8696 12.7755C24.0386 12.8409 23.7541 12.7202 23.895 12.7851C23.9389 12.8059 23.9826 12.8255 24.0254 12.8481L23.6969 12.2758C23.6834 12.4733 23.6619 12.67 23.6381 12.8666C23.6309 12.9241 23.6235 12.9815 23.6163 13.039C23.5934 13.2232 23.6373 12.8934 23.6102 13.0846C23.5889 13.2343 23.5677 13.3837 23.5453 13.5331C23.4404 14.2325 23.3213 14.9296 23.1978 15.626C22.8598 17.5318 22.4849 19.4286 22.0963 21.3234C21.25 25.4491 20.3531 29.5719 19.2837 33.6462C19.0688 34.4658 18.8456 35.2839 18.5973 36.0943C18.5034 36.4003 18.4061 36.7056 18.2998 37.0075C18.255 37.1348 18.2089 37.2619 18.1597 37.3875C18.1382 37.4428 18.1147 37.4964 18.0937 37.551C18.149 37.4052 18.1324 37.4616 18.0874 37.5602L18.8359 37.2563C17.4695 36.9022 16.0603 36.7216 14.706 36.3205C13.8862 36.0777 13.536 37.3569 14.3536 37.5991C15.707 38.0002 17.1157 38.1791 18.4835 38.5346C18.6243 38.5721 18.7735 38.5628 18.9086 38.5079C19.0436 38.4531 19.1571 38.3558 19.232 38.2308C19.7147 37.0714 20.1016 35.8745 20.3888 34.6519C20.902 32.7527 21.3594 30.8383 21.801 28.9211C22.7484 24.8056 23.6254 20.6715 24.3797 16.517C24.6717 15.1167 24.8864 13.7014 25.0228 12.2775C25.0242 12.1614 24.9946 12.0471 24.9369 11.9464C24.8791 11.8457 24.7955 11.7623 24.6946 11.7049C24.0786 11.4158 23.4399 11.1778 22.7849 10.9934C21.969 10.7251 21.1486 10.4712 20.3239 10.2319C19.5027 9.99459 19.1519 11.2734 19.9714 11.5102V11.5085Z" fill="#2E3192"/>
<path d="M91.4219 4.53384C94.703 3.65549 97.9855 2.78211 101.263 1.88967L100.424 1.25135C100.42 9.58298 100.527 17.9146 100.609 26.2457C100.632 28.6349 100.654 31.024 100.674 33.4131L101.161 32.7739C97.5533 33.6749 93.9661 34.6544 90.3643 35.5775C89.6937 35.7493 89.0225 35.9211 88.348 36.0777L89.1636 36.5406C87.9541 33.3603 87.2967 29.9499 86.5998 26.6302C85.6823 22.2594 84.855 17.8704 83.93 13.5016C83.4226 11.1049 82.8887 8.71319 82.2802 6.33998L81.8172 7.15536C84.9915 6.19387 88.2184 5.39203 91.4219 4.53467C92.2453 4.3137 91.8959 3.03484 91.0695 3.25609C87.8654 4.11372 84.639 4.91529 81.4648 5.87705C81.2971 5.92658 81.1551 6.03923 81.0688 6.19131C80.9824 6.34339 80.9584 6.52303 81.0019 6.69243C82.1067 11.0013 82.9806 15.369 83.8532 19.7296C84.6722 23.8222 85.4502 27.9292 86.4427 31.9842C86.8222 33.6482 87.3039 35.2872 87.885 36.892C87.9359 37.0588 88.0488 37.1997 88.2005 37.2859C88.3522 37.372 88.5311 37.3967 88.7004 37.3549C92.01 36.5876 95.2839 35.6565 98.5716 34.803C99.5515 34.5485 100.532 34.2979 101.513 34.0511C101.652 34.0111 101.775 33.9273 101.863 33.8122C101.95 33.697 101.998 33.5567 102 33.412C101.93 24.8431 101.819 16.2742 101.769 7.70502C101.757 5.5537 101.75 3.40211 101.75 1.25025C101.748 1.14864 101.724 1.04867 101.678 0.95793C101.632 0.867186 101.567 0.788039 101.486 0.726481C101.405 0.664923 101.311 0.622569 101.211 0.602626C101.112 0.582682 101.009 0.585672 100.911 0.61137C97.6331 1.50381 94.3506 2.37691 91.0695 3.25526C90.2461 3.47568 90.5955 4.75509 91.4219 4.53384Z" fill="#2E3192"/>
<path d="M81.6756 7.08333C80.8398 7.32455 80.0073 7.57655 79.1781 7.83931C78.5161 8.01747 77.8701 8.25019 77.2466 8.53509C77.1456 8.59233 77.0618 8.67564 77.0041 8.77631C76.9463 8.87699 76.9166 8.99133 76.9181 9.1074C77.0331 10.3277 77.2136 11.5409 77.459 12.7418C77.8026 14.6614 78.1843 16.5745 78.5804 18.4839C79.4441 22.6486 80.3592 26.8103 81.4502 30.922C81.8201 32.316 82.1664 33.7642 82.768 35.0812C82.8424 35.2066 82.9559 35.3043 83.0911 35.3592C83.2263 35.414 83.3757 35.4231 83.5165 35.385C84.883 35.0309 86.2925 34.8505 87.6464 34.4495C88.4627 34.2075 88.116 32.9276 87.294 33.1709C85.9406 33.5722 84.5319 33.7526 83.1641 34.1067L83.9126 34.4105C83.8996 34.3699 83.8823 34.3307 83.861 34.2937C83.9798 34.4442 83.8963 34.3813 83.8629 34.2937C83.8195 34.1832 83.777 34.0727 83.7364 33.9595C83.6414 33.6968 83.5544 33.4314 83.4701 33.1651C83.2539 32.4812 83.0594 31.7904 82.8713 31.0985C82.362 29.2222 81.9046 27.3318 81.4646 25.4386C80.51 21.3364 79.625 17.2139 78.8618 13.0716C78.7091 12.2429 78.5616 11.4107 78.4312 10.5771C78.4047 10.407 78.379 10.2366 78.3542 10.0661C78.3439 9.99514 78.3343 9.92388 78.3241 9.85289C78.3058 9.72528 78.3415 9.99735 78.3166 9.79434C78.289 9.56425 78.2614 9.33444 78.2445 9.10381L77.9161 9.67612C77.9544 9.65225 77.9953 9.63305 78.0382 9.61894C77.8664 9.6554 78.0064 9.63275 78.0542 9.61535C78.1923 9.56536 78.3282 9.51371 78.466 9.46565C78.848 9.33251 79.2333 9.20849 79.6189 9.08641C80.4188 8.83303 81.2221 8.59033 82.0286 8.35832C82.8467 8.12215 82.4982 6.84247 81.6762 7.07973L81.6756 7.08333Z" fill="#2E3192"/>
<path d="M30.1995 42.8559C30.6656 41.7675 31.2778 40.7477 32.0192 39.8245C32.6879 39.0003 33.4853 37.9974 34.5308 37.6535C34.9985 37.4972 35.4972 37.4566 35.9841 37.5351C36.471 37.6136 36.9316 37.8089 37.3266 38.1043C37.6576 38.3917 37.9216 38.7483 38.0999 39.1488C38.2782 39.5494 38.3665 39.9842 38.3585 40.4225C38.3659 40.7787 38.3088 41.1332 38.19 41.4691C38.1804 41.4967 38.1171 41.6566 38.1428 41.5945C38.1638 41.5431 38.0956 41.7003 38.0784 41.7373C38.0014 41.903 37.9182 42.0687 37.832 42.23C37.4354 42.9647 36.9909 43.6724 36.5013 44.3486C36.0267 45.0284 35.4944 45.666 34.9103 46.2544C34.7838 46.3787 34.6529 46.4975 34.5189 46.6135C34.4943 46.6351 34.4686 46.6555 34.4432 46.6759C34.3584 46.7444 34.5134 46.6254 34.4294 46.6873C34.3675 46.7328 34.3046 46.7773 34.2394 46.8182C33.8369 47.0623 33.3759 47.193 32.9053 47.1966C32.4238 47.2038 31.9485 47.0876 31.5245 46.8592C31.1006 46.6308 30.7421 46.2978 30.4832 45.8918C30.1847 45.4191 30.0086 44.8796 29.9708 44.3219C29.9329 43.7641 30.0345 43.2058 30.2664 42.6971C30.3119 42.5276 30.2888 42.3471 30.2021 42.1945C30.1154 42.0419 29.9721 41.9296 29.8031 41.882C29.6338 41.8396 29.4546 41.864 29.3028 41.9502C29.1509 42.0364 29.0381 42.1778 28.9878 42.345C28.7372 42.9422 28.616 43.5857 28.6321 44.2332C28.6482 44.8807 28.8014 45.5174 29.0814 46.1014C29.5857 47.1332 30.4724 47.9277 31.5532 48.3161C32.1313 48.5159 32.7477 48.5793 33.3543 48.5015C33.961 48.4237 34.5414 48.2067 35.0503 47.8675C35.7811 47.3098 36.4289 46.651 36.9741 45.9108C37.6128 45.1061 38.1942 44.2576 38.7143 43.3716C39.1672 42.6787 39.4805 41.904 39.6365 41.091C39.7229 40.4907 39.6886 39.8793 39.5358 39.2925C39.3829 38.7057 39.1145 38.1552 38.7463 37.6734C38.3446 37.1897 37.8386 36.8034 37.2661 36.5434C36.6936 36.2834 36.0697 36.1566 35.4412 36.1725C33.8494 36.1943 32.6539 37.1132 31.6295 38.2479C30.5631 39.4121 29.6934 40.7421 29.0546 42.1859C28.9715 42.3389 28.9498 42.518 28.994 42.6865C29.0382 42.855 29.1449 43.0003 29.2924 43.0929C29.4444 43.1805 29.6248 43.2048 29.7946 43.1604C29.9643 43.1161 30.1098 43.0067 30.1995 42.8559Z" fill="#2E3192"/>
<path d="M37.3553 46.3972C37.7244 45.3211 38.2379 44.3002 38.8817 43.3624C39.4509 42.5258 40.1348 41.5356 41.1021 41.132C41.5165 40.9415 41.9721 40.858 42.4271 40.8892C42.8821 40.9203 43.322 41.0652 43.7065 41.3106C44.091 41.5559 44.4077 41.8938 44.6277 42.2933C44.8478 42.6928 44.964 43.1411 44.9658 43.5972C44.9879 43.9184 44.9541 44.2411 44.8658 44.5507C44.7837 44.8202 44.6852 45.0845 44.5708 45.342C44.2315 46.0991 43.8432 46.8331 43.4082 47.5396C43.011 48.2206 42.5524 48.8639 42.0379 49.4614C41.9385 49.5719 41.836 49.681 41.7286 49.7843C41.6761 49.8349 41.6222 49.8835 41.5678 49.9318C41.5402 49.9575 41.5084 49.9826 41.4781 50.007C41.5587 49.9423 41.4905 49.9987 41.4463 50.0266C40.8741 50.4045 40.1787 50.5486 39.5034 50.4292C38.8281 50.3099 38.2243 49.9361 37.8163 49.3849C37.4995 48.9633 37.2917 48.47 37.2113 47.9488C37.1309 47.4276 37.1804 46.8946 37.3553 46.3972C37.6136 45.5821 36.3334 45.2332 36.0768 46.0447C35.8785 46.6357 35.8054 47.2615 35.8621 47.8823C35.9188 48.5032 36.1041 49.1054 36.4063 49.6506C36.9606 50.6189 37.8659 51.3368 38.935 51.6559C39.5209 51.8185 40.1367 51.8419 40.7333 51.7245C41.3299 51.607 41.8908 51.3518 42.3713 50.9792C43.0354 50.3972 43.6078 49.7183 44.0692 48.9654C44.613 48.1595 45.0977 47.3153 45.5196 46.4394C45.9187 45.7102 46.1791 44.9133 46.2874 44.0891C46.3288 43.4989 46.252 42.9064 46.0616 42.3462C45.8712 41.7861 45.571 41.2695 45.1785 40.8268C44.7474 40.3773 44.2181 40.0338 43.632 39.8234C43.0458 39.613 42.4189 39.5413 41.8004 39.614C41.0687 39.684 40.3692 39.9486 39.7744 40.3805C39.1836 40.8501 38.6622 41.401 38.2257 42.0167C37.2951 43.2337 36.569 44.5942 36.0759 46.0447C35.8022 46.8537 37.0824 47.2023 37.3553 46.3972Z" fill="#2E3192"/>
<path d="M43.4659 51.2576C43.5942 50.6097 43.8005 49.9797 44.0802 49.3813C44.3387 48.7539 44.6964 48.172 45.1395 47.658C45.9957 46.7493 47.6712 46.7068 48.3435 47.8447C49.0158 48.9827 48.7885 50.1282 48.3778 51.2789C47.9634 52.437 47.3141 53.9029 45.9405 54.0838C45.5993 54.1185 45.2548 54.0725 44.9347 53.9495C44.6145 53.8265 44.3278 53.63 44.0976 53.3759C43.8359 53.0955 43.6426 52.7584 43.5328 52.3909C43.423 52.0235 43.3996 51.6356 43.4645 51.2576C43.5059 51.0883 43.481 50.9095 43.395 50.7579C43.3089 50.6063 43.1682 50.4932 43.0016 50.442C42.8321 50.3966 42.6515 50.4198 42.4989 50.5065C42.3463 50.5931 42.2339 50.7363 42.1859 50.9052C42.0302 51.87 42.1362 52.9801 42.7298 53.7918C43.242 54.5451 44.0102 55.0868 44.8917 55.3162C45.3806 55.4348 45.8897 55.4439 46.3825 55.3428C46.8753 55.2417 47.3397 55.033 47.7425 54.7315C48.3877 54.1799 48.8926 53.483 49.2158 52.698C49.9254 51.1852 50.4358 49.4691 49.8011 47.8403C49.657 47.4079 49.4228 47.011 49.114 46.6758C48.8052 46.3406 48.4287 46.0748 48.0096 45.8958C47.5506 45.7227 47.0614 45.6442 46.5713 45.6652C46.0812 45.6862 45.6005 45.8061 45.158 46.0179C44.2573 46.4397 43.6579 47.3117 43.2043 48.1643C42.7303 49.0222 42.3871 49.9459 42.1859 50.9052C42.144 51.0745 42.1686 51.2536 42.2548 51.4053C42.341 51.557 42.4822 51.6699 42.6492 51.7205C42.8188 51.7661 42.9996 51.7431 43.1524 51.6565C43.3053 51.5699 43.4179 51.4266 43.4659 51.2576Z" fill="#2E3192"/>
<path d="M23.4912 40.984C23.3189 40.4209 23.3233 39.8185 23.5036 39.2579C23.6517 38.7249 23.8525 38.3288 24.3405 38.1078C25.2346 37.7032 26.4989 38.0365 27.2863 38.6387C28.2208 39.353 29.2706 40.4114 29.0358 41.6991C28.9901 41.9568 28.8964 42.2037 28.7596 42.4269C28.67 42.5899 28.5359 42.724 28.3729 42.8136C27.8624 43.0389 27.3097 43.1531 26.7516 43.1484C26.1079 43.187 25.4688 43.0178 24.9286 42.6656C24.2865 42.2685 23.7844 41.6809 23.4923 40.9848C23.4411 40.8182 23.3282 40.6774 23.1766 40.5913C23.025 40.5052 22.8463 40.4802 22.6769 40.5216C22.508 40.5694 22.3647 40.6818 22.2781 40.8345C22.1915 40.9871 22.1684 41.1678 22.214 41.3373C22.8821 43.0036 24.4019 44.319 26.2318 44.464C27.024 44.529 27.821 44.4269 28.5713 44.1643C28.9239 44.0394 29.2453 43.8395 29.5132 43.5785C29.7812 43.3174 29.9893 43.0013 30.1233 42.652C30.3087 42.1911 30.3959 41.6966 30.3794 41.2001C30.3628 40.7035 30.2429 40.2159 30.0272 39.7684C29.6689 39.0888 29.1774 38.4884 28.582 38.0028C27.4137 36.9532 25.7796 36.3055 24.2044 36.7552C23.7693 36.8821 23.3717 37.1133 23.0463 37.4287C22.7208 37.7442 22.4773 38.1343 22.3369 38.5652C21.9835 39.4487 21.9402 40.4259 22.214 41.3373C22.2646 41.5043 22.3774 41.6455 22.5292 41.7316C22.681 41.8178 22.86 41.8423 23.0294 41.8002C23.198 41.7519 23.3409 41.6393 23.4273 41.4866C23.5137 41.3339 23.5367 41.1534 23.4912 40.984Z" fill="#2E3192"/>
<path d="M62.475 36.1657L62.4549 36.1505L62.5891 36.254C62.434 36.1317 62.2948 35.9903 62.1748 35.8334L62.2784 35.9676C62.0649 35.683 61.8885 35.3724 61.7536 35.0431L61.8204 35.2014C61.7574 35.0508 61.7021 34.8972 61.6547 34.741C61.6062 34.5757 61.4979 34.4343 61.3509 34.3446C61.237 34.278 61.1059 34.2469 60.9743 34.2552C60.8427 34.2636 60.7166 34.3109 60.612 34.3913C60.5075 34.4717 60.4293 34.5815 60.3875 34.7065C60.3457 34.8316 60.3421 34.9663 60.3772 35.0934C60.4887 35.4599 60.6373 35.814 60.8208 36.1502C60.9447 36.3722 61.0872 36.5834 61.2467 36.7813C61.4095 36.9816 61.5979 37.1596 61.8072 37.3106C61.8836 37.355 61.9681 37.3838 62.0558 37.3953C62.1435 37.4067 62.2326 37.4005 62.3179 37.3771C62.4018 37.354 62.4804 37.3145 62.5491 37.2611C62.6178 37.2076 62.6753 37.141 62.7183 37.0653C62.7612 36.9896 62.7889 36.9062 62.7996 36.8198C62.8104 36.7334 62.804 36.6457 62.7808 36.5617L62.714 36.4035C62.6565 36.3051 62.5746 36.2232 62.4762 36.1657H62.475Z" fill="#2E3192"/>
</svg>
