<svg width="24" height="24" viewBox="0 0 24 24" fill="none" xmlns="http://www.w3.org/2000/svg">
<path d="M12.125 6.26351L12.8059 7.71189L13.0886 8.31329L13.7453 8.41528L15.3972 8.67183L14.1652 9.92969L13.723 10.3811L13.8244 11.0048L14.1021 12.7143L12.7316 11.9536L12.125 11.6168L11.5183 11.9536L10.1479 12.7143L10.4256 11.0048L10.5269 10.3811L10.0848 9.92969L8.8527 8.67183L10.5047 8.41528L11.1613 8.31329L11.4441 7.71189L12.125 6.26351Z" fill="#FDB913" stroke="#FDB913" stroke-width="2.5"/>
<path d="M5.0019 1H18.9981C20.0595 1 21.0774 1.42174 21.8279 2.17245C22.5784 2.92316 23 3.94133 23 5.00299V15C23 16.0617 22.5784 17.0798 21.8279 17.8305C21.0774 18.5812 20.0595 19.003 18.9981 19.003H14.9962L12 22L9.00381 19.003H5.0019C3.94053 19.003 2.92263 18.5812 2.17213 17.8305C1.42163 17.0798 0.999999 16.0617 0.999999 15V5.00299C0.999999 3.94133 1.42163 2.92316 2.17213 2.17245C2.92263 1.42174 3.94053 1 5.0019 1Z" stroke="#FDB913" stroke-width="2" stroke-miterlimit="10"/>
</svg>
