<svg width="64" height="77" viewBox="0 0 64 77" fill="none" xmlns="http://www.w3.org/2000/svg">
<path d="M31.6328 1.15479C18.8745 1.15479 8.43213 11.5972 8.43213 24.3555V36.3667C8.43213 49.125 18.8745 59.5674 31.6328 59.5674C44.3911 59.5674 54.8335 49.125 54.8335 36.3667V24.3638C54.8335 11.5972 44.3994 1.15479 31.6328 1.15479ZM46.0928 36.5576C46.0928 44.5098 39.585 51.0176 31.6328 51.0176C23.6807 51.0176 17.1729 44.5098 17.1729 36.5576V23.6831C17.1729 15.731 23.6807 9.22314 31.6328 9.22314C39.585 9.22314 46.0928 15.731 46.0928 23.6831V36.5576Z" fill="#FDB913"/>
<path d="M31.6328 60.6548C25.1748 60.6548 19.082 58.123 14.4834 53.5244C12.2505 51.2915 10.499 48.6934 9.27051 45.8047C8.00049 42.8081 7.35303 39.6372 7.35303 36.375V24.3638C7.35303 17.9058 9.88476 11.813 14.4834 7.21436C19.082 2.61572 25.1748 0.0839844 31.6328 0.0839844C38.0908 0.0839844 44.1836 2.61572 48.7822 7.21436C53.3809 11.813 55.9126 17.9058 55.9126 24.3638V36.375C55.9126 39.6372 55.2651 42.8164 53.9951 45.8047C52.7666 48.6934 51.0151 51.2915 48.7822 53.5244C44.1836 58.123 38.0908 60.6548 31.6328 60.6548ZM31.6328 2.23389C25.7476 2.23389 20.2026 4.5415 16.0107 8.7334C11.8188 12.9253 9.51123 18.4702 9.51123 24.3555V36.3667C9.51123 42.252 11.8188 47.7969 16.0107 51.9888C20.2026 56.1807 25.7476 58.4883 31.6328 58.4883C37.5181 58.4883 43.063 56.1807 47.2549 51.9888C51.4468 47.7969 53.7544 42.252 53.7544 36.3667V24.3638C53.7544 18.4785 51.4468 12.9336 47.2549 8.7417C43.063 4.54981 37.5181 2.23389 31.6328 2.23389ZM31.6328 52.0967C27.499 52.0967 23.5977 50.478 20.6592 47.5312C17.7124 44.5845 16.0937 40.6914 16.0937 36.5576V23.6831C16.0937 19.5493 17.7124 15.648 20.6592 12.7095C23.606 9.7627 27.499 8.14404 31.6328 8.14404C35.7666 8.14404 39.668 9.7627 42.6064 12.7095C45.5449 15.6563 47.1719 19.5493 47.1719 23.6831V36.5576C47.1719 40.6914 45.5532 44.5928 42.6064 47.5312C39.6597 50.4697 35.7666 52.0967 31.6328 52.0967ZM31.6328 10.3022C28.0718 10.3022 24.7183 11.6968 22.1782 14.2368C19.6465 16.7686 18.2437 20.1304 18.2437 23.6914V36.5659C18.2437 40.127 19.6382 43.4805 22.1782 46.0205C24.71 48.5605 28.0718 49.9551 31.6328 49.9551C35.1938 49.9551 38.5474 48.5605 41.0874 46.0205C43.6191 43.4888 45.022 40.127 45.022 36.5659V23.6831C45.022 20.1221 43.6274 16.7686 41.0874 14.2285C38.5474 11.6885 35.1938 10.3022 31.6328 10.3022Z" fill="#2E3192"/>
<path d="M59.1748 75.7041H4.09082C2.53027 75.7041 1.26855 74.4424 1.26855 72.8818V36.5659C1.26855 35.0054 2.53027 33.7437 4.09082 33.7437H59.1748C60.7354 33.7437 61.9971 35.0054 61.9971 36.5659V72.8901C61.9971 74.4424 60.7354 75.7041 59.1748 75.7041Z" fill="#FCFCFC"/>
<path d="M59.1748 76.7832H4.09082C1.94092 76.7832 0.189453 75.0317 0.189453 72.8818V36.5659C0.189453 34.416 1.94092 32.6646 4.09082 32.6646H59.1748C61.3247 32.6646 63.0762 34.416 63.0762 36.5659V72.8901C63.0762 75.04 61.3247 76.7832 59.1748 76.7832ZM4.09082 34.8228C3.12793 34.8228 2.34766 35.603 2.34766 36.5659V72.8901C2.34766 73.853 3.12793 74.6333 4.09082 74.6333H59.1748C60.1377 74.6333 60.918 73.853 60.918 72.8901V36.5659C60.918 35.603 60.1377 34.8228 59.1748 34.8228H4.09082Z" fill="#2E3192"/>
<path d="M27.416 47.0747C27.416 48.1931 27.8603 49.2656 28.6511 50.0564C29.4419 50.8472 30.5144 51.2915 31.6328 51.2915C32.7512 51.2915 33.8237 50.8472 34.6145 50.0564C35.4053 49.2656 35.8496 48.1931 35.8496 47.0747C35.8496 45.9563 35.4053 44.8838 34.6145 44.093C33.8237 43.3022 32.7512 42.8579 31.6328 42.8579C30.5144 42.8579 29.4419 43.3022 28.6511 44.093C27.8603 44.8838 27.416 45.9563 27.416 47.0747Z" fill="#2E3192"/>
<path d="M31.6328 66.8306C30.811 66.8306 30.1387 66.1582 30.1387 65.3364V51.0176C30.1387 50.1958 30.811 49.5234 31.6328 49.5234C32.4546 49.5234 33.127 50.1958 33.127 51.0176V65.3364C33.127 66.1665 32.4629 66.8306 31.6328 66.8306Z" fill="#2E3192"/>
</svg>
