<svg width="70" height="52" viewBox="0 0 70 52" fill="none" xmlns="http://www.w3.org/2000/svg">
<path d="M61.6737 0H30.886C26.293 0 22.5597 3.07018 22.5597 6.84035V9.77544H7.65088C3.42632 9.77544 0 12.6 0 16.0754V35.5035C0 38.979 3.42632 41.8035 7.65088 41.8035H10.6228L20.7053 51.1982C20.9302 51.4128 21.2295 51.5316 21.5404 51.5298C21.7093 51.5329 21.8768 51.4994 22.0316 51.4316C22.2502 51.3343 22.4361 51.1759 22.5668 50.9755C22.6975 50.775 22.7675 50.5411 22.7684 50.3018V41.8035H35.4298C39.6544 41.8035 43.0807 38.979 43.0807 35.5035V35.2211H45.0456V44.7509C45.0458 44.9919 45.1169 45.2276 45.2502 45.4285C45.3834 45.6294 45.5728 45.7867 45.7947 45.8807C45.9448 45.9496 46.1086 45.9832 46.2737 45.979C46.5857 45.9797 46.8871 45.8661 47.1211 45.6597L58.3333 35.2211H61.6737C66.2667 35.2211 70 32.1509 70 28.3684V6.84035C70 3.07018 66.2667 0 61.6737 0ZM40.6246 35.5035C40.6246 37.5912 38.2421 39.3474 35.4298 39.3474H21.5404C21.2146 39.3474 20.9023 39.4768 20.672 39.7071C20.4417 39.9374 20.3123 40.2497 20.3123 40.5754V47.4772L11.9368 39.679C11.7104 39.4669 11.412 39.3484 11.1018 39.3474H7.65088C4.78947 39.3474 2.45614 37.6281 2.45614 35.5035V16.0754C2.45614 13.9632 4.78947 12.2316 7.65088 12.2316H22.5597V28.3684C22.5597 32.1509 26.293 35.2211 30.886 35.2211H40.6246V35.5035ZM67.5439 28.3684C67.5439 30.7877 64.9035 32.7649 61.6737 32.7649H57.8421C57.5338 32.7643 57.2363 32.8781 57.007 33.0842L47.5018 41.9386V33.993C47.5034 33.8313 47.4727 33.6708 47.4116 33.5211C47.3505 33.3713 47.2601 33.2353 47.1457 33.1209C47.0314 33.0066 46.8953 32.9162 46.7456 32.855C46.5958 32.7939 46.4354 32.7633 46.2737 32.7649H30.886C27.6561 32.7649 25.0158 30.7877 25.0158 28.3684V6.84035C25.0158 4.42105 27.6561 2.45614 30.886 2.45614H61.6737C64.9035 2.45614 67.5439 4.42105 67.5439 6.84035V28.3684Z" fill="#2E3192"/>
<circle cx="33.5" cy="17.5" r="3.5" fill="#FDB913"/>
<circle cx="46.5" cy="17.5" r="3.5" fill="#FDB913"/>
<circle cx="58.5" cy="17.5" r="3.5" fill="#FDB913"/>
<path d="M33.9069 12.7966C32.9978 12.7978 32.1095 13.0685 31.3541 13.5743C30.5987 14.0801 30.0102 14.7984 29.6629 15.6386C29.3155 16.4787 29.225 17.4029 29.4026 18.2945C29.5803 19.1861 30.0182 20.005 30.661 20.6478C31.3038 21.2906 32.1228 21.7285 33.0143 21.9062C33.9059 22.0839 34.8301 21.9933 35.6703 21.646C36.5104 21.2986 37.2287 20.7101 37.7346 19.9547C38.2404 19.1993 38.511 18.311 38.5122 17.4019C38.5119 16.1806 38.0266 15.0094 37.163 14.1458C36.2994 13.2823 35.1282 12.797 33.9069 12.7966ZM33.9069 19.5387C33.4831 19.5375 33.0691 19.4106 32.7174 19.1742C32.3657 18.9377 32.092 18.6022 31.9309 18.2102C31.7698 17.8181 31.7286 17.3871 31.8125 16.9717C31.8964 16.5562 32.1016 16.1749 32.4021 15.8761C32.7027 15.5773 33.0851 15.3743 33.501 15.2928C33.917 15.2113 34.3477 15.2549 34.7388 15.4183C35.13 15.5816 35.4639 15.8572 35.6983 16.2103C35.9328 16.5634 36.0573 16.9781 36.0561 17.4019C36.0528 17.9697 35.825 18.5132 35.4223 18.9136C35.0196 19.314 34.4748 19.5387 33.9069 19.5387Z" fill="#2E3192"/>
<path d="M46.593 13C45.6839 13.0012 44.7955 13.2718 44.0402 13.7776C43.2848 14.2835 42.6962 15.0018 42.3489 15.8419C42.0016 16.6821 41.911 17.6063 42.0887 18.4979C42.2663 19.3894 42.7042 20.2084 43.3471 20.8512C43.9899 21.494 44.8088 21.9319 45.7004 22.1096C46.5919 22.2872 47.5162 22.1967 48.3563 21.8493C49.1964 21.502 49.9148 20.9135 50.4206 20.1581C50.9264 19.4027 51.197 18.5144 51.1982 17.6053C51.1984 17.0004 51.0794 16.4015 50.848 15.8427C50.6166 15.2839 50.2774 14.7762 49.8498 14.3485C49.4221 13.9208 48.9143 13.5816 48.3555 13.3502C47.7967 13.1188 47.1978 12.9998 46.593 13ZM46.593 19.7421C46.1691 19.7409 45.7552 19.614 45.4034 19.3775C45.0517 19.1411 44.778 18.8056 44.6169 18.4135C44.4559 18.0215 44.4146 17.5905 44.4985 17.175C44.5824 16.7596 44.7876 16.3783 45.0882 16.0795C45.3887 15.7806 45.7711 15.5776 46.1871 15.4961C46.603 15.4146 47.0338 15.4583 47.4249 15.6216C47.816 15.7849 48.1499 16.0606 48.3844 16.4137C48.6188 16.7667 48.7433 17.1814 48.7421 17.6053C48.7419 17.8869 48.6862 18.1657 48.5779 18.4257C48.4697 18.6856 48.3112 18.9217 48.1115 19.1202C47.9118 19.3188 47.6749 19.4759 47.4143 19.5827C47.1537 19.6894 46.8746 19.7436 46.593 19.7421Z" fill="#2E3192"/>
<path d="M58.6527 12.7966C57.7436 12.7978 56.8552 13.0685 56.0999 13.5743C55.3445 14.0801 54.7559 14.7984 54.4086 15.6386C54.0613 16.4787 53.9707 17.4029 54.1484 18.2945C54.326 19.1861 54.7639 20.005 55.4067 20.6478C56.0496 21.2906 56.8685 21.7285 57.7601 21.9062C58.6516 22.0839 59.5759 21.9933 60.416 21.646C61.2561 21.2986 61.9745 20.7101 62.4803 19.9547C62.9861 19.1993 63.2567 18.311 63.2579 17.4019C63.2576 16.1806 62.7723 15.0094 61.9087 14.1458C61.0451 13.2823 59.874 12.797 58.6527 12.7966ZM58.6527 19.5387C58.2288 19.5375 57.8149 19.4106 57.4631 19.1742C57.1114 18.9377 56.8377 18.6022 56.6766 18.2102C56.5155 17.8181 56.4743 17.3871 56.5582 16.9717C56.6421 16.5562 56.8473 16.1749 57.1479 15.8761C57.4484 15.5773 57.8308 15.3743 58.2468 15.2928C58.6627 15.2113 59.0935 15.2549 59.4846 15.4183C59.8757 15.5816 60.2096 15.8572 60.444 16.2103C60.6785 16.5634 60.803 16.9781 60.8018 17.4019C60.8013 17.6834 60.7453 17.9621 60.637 18.2219C60.5287 18.4817 60.3701 18.7176 60.1705 18.9161C59.9709 19.1146 59.7341 19.2718 59.4736 19.3786C59.2132 19.4855 58.9342 19.5399 58.6527 19.5387Z" fill="#2E3192"/>
</svg>
