<svg width="19" height="25" viewBox="0 0 19 25" fill="none" xmlns="http://www.w3.org/2000/svg">
<path d="M9.375 0C4.19766 0 0 4.19766 0 9.375C0 11.4137 0.668359 13.2844 1.7793 14.8164C1.79922 14.8531 1.80234 14.8941 1.825 14.9293L8.075 24.3043C8.36484 24.7391 8.85312 25 9.375 25C9.89688 25 10.3852 24.7391 10.675 24.3043L16.925 14.9293C16.948 14.8941 16.9508 14.8531 16.9707 14.8164C18.0816 13.2844 18.75 11.4137 18.75 9.375C18.75 4.19766 14.5523 0 9.375 0ZM9.375 12.5C7.64922 12.5 6.25 11.1008 6.25 9.375C6.25 7.64922 7.64922 6.25 9.375 6.25C11.1008 6.25 12.5 7.64922 12.5 9.375C12.5 11.1008 11.1008 12.5 9.375 12.5Z" fill="#2E3192"/>
</svg>
