<svg width="25" height="25" viewBox="0 0 25 25" fill="none" xmlns="http://www.w3.org/2000/svg">
<path fill-rule="evenodd" clip-rule="evenodd" d="M13.8584 24.2347L14.5361 23.0898C15.0616 22.2018 15.3244 21.7578 15.7466 21.5123C16.1687 21.2668 16.7001 21.2577 17.7631 21.2395C19.3323 21.2123 20.3165 21.1162 21.1418 20.7743C22.6733 20.14 23.89 18.9233 24.5243 17.3918C25.0001 16.2433 25.0001 14.7872 25.0001 11.875V10.625C25.0001 6.53324 25.0001 4.48733 24.0791 2.9844C23.5637 2.14342 22.8567 1.43636 22.0157 0.921003C20.5127 -7.45061e-08 18.4668 0 14.3751 0H10.625C6.53324 0 4.48733 -7.45061e-08 2.9844 0.921003C2.14342 1.43636 1.43636 2.14342 0.921003 2.9844C-7.45061e-08 4.48733 0 6.53324 0 10.625V11.875C0 14.7872 -3.7253e-08 16.2433 0.475752 17.3918C1.11009 18.9233 2.32681 20.14 3.85824 20.7743C4.68363 21.1162 5.6678 21.2123 7.237 21.2395C8.29993 21.2577 8.8314 21.2668 9.25352 21.5123C9.67565 21.758 9.93845 22.2018 10.464 23.0898L11.1417 24.2347C11.7457 25.2551 13.2544 25.2551 13.8584 24.2347ZM17.5001 12.5C18.1904 12.5 18.7501 11.9404 18.7501 11.25C18.7501 10.5597 18.1904 10 17.5001 10C16.8097 10 16.2501 10.5597 16.2501 11.25C16.2501 11.9404 16.8097 12.5 17.5001 12.5ZM13.7501 11.25C13.7501 11.9404 13.1904 12.5 12.5 12.5C11.8097 12.5 11.25 11.9404 11.25 11.25C11.25 10.5597 11.8097 10 12.5 10C13.1904 10 13.7501 10.5597 13.7501 11.25ZM7.50003 12.5C8.19038 12.5 8.75003 11.9404 8.75003 11.25C8.75003 10.5597 8.19038 10 7.50003 10C6.80968 10 6.25002 10.5597 6.25002 11.25C6.25002 11.9404 6.80968 12.5 7.50003 12.5Z" fill="#005DB9"/>
</svg>
