<svg width="30" height="30" viewBox="0 0 30 30" fill="none" xmlns="http://www.w3.org/2000/svg">
<path fill-rule="evenodd" clip-rule="evenodd" d="M9.375 15.9375L19.2994 15.9375L15.4359 19.8009C15.0694 20.1675 15.0694 20.7609 15.4359 21.1265C15.8016 21.4931 16.395 21.4931 16.7616 21.1265L22.0641 15.8241C22.2891 15.5991 22.3594 15.2916 22.3078 15C22.3594 14.7084 22.2891 14.4009 22.0641 14.1759L16.7616 8.86877C16.395 8.50315 15.8016 8.50315 15.4359 8.86877C15.0694 9.2344 15.0694 9.83438 15.4359 10.2L19.2994 14.0625L9.375 14.0625C8.85656 14.0625 8.4375 14.4816 8.4375 15C8.4375 15.5175 8.85656 15.9375 9.375 15.9375ZM1.875 3.75001C1.875 2.71876 2.715 1.875 3.75 1.875L26.25 1.875C27.285 1.875 28.125 2.71875 28.125 3.75L28.125 26.25C28.125 27.285 27.285 28.125 26.25 28.125L3.75 28.125C2.715 28.125 1.875 27.285 1.875 26.25L1.875 3.75001ZM3.75 30L26.25 30C28.3209 30 30 28.3209 30 26.25L30 3.75C30 1.67813 28.3209 2.98863e-07 26.25 6.67478e-07L3.75 4.67235e-06C1.67906 5.04096e-06 -1.21609e-06 1.67813 -1.12713e-06 3.75001L-1.61018e-07 26.25C-7.20958e-08 28.3209 1.67906 30 3.75 30Z" fill="#FDB913"/>
</svg>
