<svg width="24" height="23" viewBox="0 0 24 23" fill="none" xmlns="http://www.w3.org/2000/svg">
<path d="M16.7416 14.5416L16.1342 15.1453C16.1342 15.1453 14.6908 16.5806 10.7508 12.6629C6.81082 8.74533 8.25426 7.31008 8.25426 7.31008L8.63666 6.92983C9.57879 5.99311 9.66759 4.4892 8.84559 3.3913L7.16434 1.14543C6.14703 -0.213444 4.18127 -0.392951 3.01526 0.766435L0.922463 2.84735C0.344304 3.42223 -0.0431357 4.16744 0.00385093 4.99414C0.124051 7.10908 1.08094 11.6596 6.42047 16.9688C12.0828 22.5989 17.3957 22.8226 19.5684 22.6201C20.2556 22.5561 20.8532 22.2061 21.3348 21.7272L23.2289 19.844C24.5074 18.5726 24.1469 16.3932 22.511 15.504L19.9637 14.1192C18.8896 13.5353 17.581 13.7068 16.7416 14.5416Z" fill="#005DB9"/>
</svg>
