<svg width="26" height="26" viewBox="0 0 26 26" fill="none" xmlns="http://www.w3.org/2000/svg">
<path d="M17.9358 13.9818L17.4423 14.4723C17.4423 14.4723 16.2695 15.6385 13.0683 12.4554C9.86705 9.27234 11.0398 8.1062 11.0398 8.1062L11.3505 7.79724C12.116 7.03615 12.1882 5.81423 11.5203 4.92218L10.1543 3.09741C9.32772 1.99332 7.73054 1.84748 6.78315 2.78948L5.08275 4.48022C4.613 4.94731 4.2982 5.5528 4.33638 6.22449C4.43404 7.94288 5.21152 11.6402 9.54989 15.9539C14.1505 20.5284 18.4673 20.7102 20.2326 20.5456C20.7909 20.4936 21.2765 20.2092 21.6678 19.8201L23.2068 18.29C24.2456 17.257 23.9526 15.4862 22.6235 14.7637L20.5538 13.6386C19.681 13.1642 18.6179 13.3035 17.9358 13.9818Z" fill="#FDB913"/>
</svg>
