<svg width="20" height="19" viewBox="0 0 20 19" fill="none" xmlns="http://www.w3.org/2000/svg">
<path d="M13.9365 11.9817L13.4431 12.4723C13.4431 12.4723 12.2703 13.6385 9.06901 10.4553C5.86778 7.27226 7.04057 6.10612 7.04057 6.10612L7.35127 5.79716C8.11676 5.03608 8.18891 3.81415 7.52103 2.9221L6.15501 1.09734C5.32845 -0.00675315 3.73127 -0.152602 2.78389 0.789399L1.08349 2.48015C0.613732 2.94724 0.298937 3.55272 0.337113 4.22441C0.434776 5.94281 1.21225 9.64009 5.55062 13.9538C10.1513 18.5283 14.468 18.7101 16.2333 18.5455C16.7917 18.4935 17.2772 18.2092 17.6685 17.82L19.2075 16.2899C20.2463 15.257 19.9534 13.4861 18.6242 12.7637L16.5545 11.6385C15.6818 11.1641 14.6186 11.3034 13.9365 11.9817Z" fill="#2E3192"/>
</svg>
