<svg width="18" height="16" viewBox="0 0 18 16" fill="none" xmlns="http://www.w3.org/2000/svg">
<path d="M17.6708 6.03928C17.6324 5.91754 17.5605 5.80909 17.4632 5.72642C17.3659 5.64374 17.2474 5.5902 17.121 5.57195L12.1544 4.84804L9.92768 0.348779C9.86427 0.242465 9.77437 0.154423 9.66679 0.0932841C9.55912 0.0321456 9.43752 0 9.31373 0C9.18993 0 9.06833 0.0321456 8.96066 0.0932841C8.85308 0.154423 8.76309 0.242465 8.69978 0.348779L6.47305 4.84804L1.50646 5.57195C1.38011 5.5902 1.26149 5.64374 1.16423 5.72642C1.06697 5.80909 0.995017 5.91754 0.95665 6.03928C0.915689 6.16056 0.90943 6.29096 0.938579 6.41558C0.967719 6.5403 1.0311 6.65429 1.12159 6.74492L4.73199 10.2454L3.87979 15.1936C3.85819 15.321 3.87246 15.4518 3.92101 15.5716C3.96957 15.6914 4.05047 15.7953 4.15469 15.8717C4.25908 15.946 4.38219 15.9897 4.51011 15.9979C4.63804 16.006 4.76568 15.9781 4.87861 15.9175L9.31373 13.5809L13.758 15.9175C13.8563 15.9714 13.9666 15.9998 14.0787 16C14.2229 15.9983 14.3632 15.9536 14.4819 15.8717C14.5861 15.7953 14.667 15.6914 14.7156 15.5716C14.7641 15.4518 14.7784 15.321 14.7568 15.1936L13.8955 10.2454L17.4967 6.74492C17.5888 6.6553 17.6538 6.54167 17.6846 6.41696C17.7154 6.29224 17.7106 6.16139 17.6708 6.03928Z" fill="#FFC800"/>
</svg>
